<?xml version="1.0" encoding="utf-8"?>
<!-- Generator: Adobe Illustrator 23.0.5, SVG Export Plug-In . SVG Version: 6.00 Build 0)  -->
<svg version="1.1" id="Layer_1" xmlns="http://www.w3.org/2000/svg" xmlns:xlink="http://www.w3.org/1999/xlink" x="0px" y="0px"
	 viewBox="0 0 1200 1200" style="enable-background:new 0 0 1200 1200;" xml:space="preserve">
<style type="text/css">
	.st0{fill:#D9DCE1;}
	.st1{fill:#70777F;}
</style>
<g>
	<g>
		<path class="st0" d="M199,1201c-66,0-132,0-198,0C1,801,1,401,1,1c400,0,800,0,1200,0c0,400,0,800,0,1200c-66.33,0-132.67,0-199,0
			c-1.08-17.09-1.56-34.23-3.35-51.25c-4.16-39.54-15.03-77.35-31.83-113.33c-41.08-87.99-106.03-152.37-193.55-194.03
			c-48.54-23.11-99.96-35.34-153.53-37.72c-19.56-0.87-39.27,0.44-58.85,1.7c-27.99,1.79-55.36,7.61-82,16.19
			c-100.38,32.35-177.74,93.66-230.18,185.4c-29.02,50.76-45.12,105.64-48.45,164.13C199.7,1181.72,199.41,1191.36,199,1201z
			 M599.79,753.58c120.61-1.04,217.18-96.02,217.53-216.99c0.35-120.84-95.8-217.64-216.87-217.91
			c-120.61-0.27-217.58,95.69-217.78,217C382.48,656.54,478.68,752.27,599.79,753.58z M264.42,536.45c0,24.67-0.04,49.33,0.01,74
			c0.04,19.32,12.64,32.01,31.9,32.11c14.17,0.08,28.34,0.22,42.5-0.11c4.56-0.11,9.41-0.89,13.58-2.65
			c12.85-5.44,18.12-16.06,18.15-29.52c0.07-41.83-0.05-83.67,0.13-125.5c0.02-5.24,0.73-10.69,2.33-15.65
			c3.31-10.27,6.9-20.52,11.3-30.37c44.36-99.41,151.75-156.09,258.45-135.05c84.9,16.74,143.43,66.7,176.79,146.32
			c6.94,16.55,10.53,33.61,10.11,51.92c-0.83,35.98-0.26,71.99-0.24,107.99c0.01,19.97,12.52,32.57,32.4,32.63
			c13.67,0.04,27.33,0.03,41,0c20.28-0.04,32.74-12.48,32.75-32.78c0.03-49,0.03-98,0-147c-0.01-19.62-12.64-32.3-32.16-32.37
			c-11.17-0.04-22.34-0.19-33.5,0.09c-4.13,0.1-6.1-1.25-7.72-5.11c-19.57-46.46-49.34-85.23-89.38-115.78
			c-59.28-45.22-126.36-63.88-200.56-57.43c-33.01,2.87-64.54,11.33-94.33,25.73C412.38,309.61,365.28,359.12,336.52,426
			c-1.39,3.23-2.98,4.58-6.59,4.5c-11.16-0.23-22.34-0.32-33.49,0.03c-4.57,0.15-9.42,0.81-13.6,2.55
			c-12.64,5.26-18.27,15.56-18.36,28.87C264.3,486.78,264.42,511.62,264.42,536.45z"/>
		<path class="st1" d="M199,1201c0.41-9.64,0.7-19.28,1.25-28.91c3.33-58.49,19.44-113.37,48.45-164.13
			c52.44-91.74,129.81-153.05,230.18-185.4c26.64-8.59,54.01-14.4,82-16.19c19.58-1.25,39.29-2.57,58.85-1.7
			c53.57,2.39,104.99,14.61,153.53,37.72c87.52,41.67,152.47,106.05,193.55,194.03c16.8,35.98,27.67,73.79,31.83,113.33
			c1.79,17.01,2.28,34.16,3.35,51.25C734.33,1201,466.67,1201,199,1201z"/>
		<path class="st1" d="M599.79,753.58c-121.11-1.3-217.31-97.04-217.11-217.91c0.2-121.3,97.16-217.27,217.78-217
			c121.07,0.27,217.22,97.08,216.87,217.91C816.97,657.56,720.4,752.54,599.79,753.58z M492.96,525.95c0,0.01,0,0.02,0,0.02
			c-9.5,0-19-0.15-28.49,0.05c-7.91,0.17-13.03,5.06-12.79,11.71c0.22,6.41,5.39,10.64,13.13,10.66c16.5,0.03,32.99,0.09,49.49-0.05
			c3.45-0.03,5.25,0.97,5.66,4.57c1.13,9.9,2.31,19.8,3.72,29.67c1.64,11.44,4.27,22.54,11.41,32.09
			c8.19,10.96,19.64,13.34,32.1,11.54c10.48-1.52,16.6-9.16,19.59-18.62c2.39-7.52,3.98-15.53,4.4-23.4
			c0.92-16.95,0.67-33.96,1.29-50.94c0.21-5.77,1.34-11.54,2.51-17.22c0.61-2.96,1.54-7.16,5.54-6.34c2.11,0.43,4.58,3.71,5.17,6.12
			c1.5,6.09,2.58,12.4,2.82,18.66c0.48,12.48-0.37,25.04,0.53,37.47c0.88,12.03,2.43,24.15,5.28,35.84
			c2.31,9.46,9,16.79,19.15,18.37c12.2,1.9,23.61-0.25,31.9-10.85c6.25-7.98,9.33-17.26,10.88-27.03
			c1.85-11.64,3.24-23.37,4.63-35.08c0.45-3.77,2.13-4.91,5.86-4.87c16.49,0.18,32.99,0.18,49.49-0.03c2.84-0.04,6.06-0.77,8.4-2.27
			c3.92-2.52,5.54-6.6,4.27-11.34c-1.46-5.43-5.83-8.62-12.54-8.67c-18.66-0.12-37.32-0.11-55.99-0.01
			c-8.74,0.05-14.82,4.42-18.27,12.36c-1.05,2.42-2.02,4.99-2.41,7.59c-1.82,12.33-2.99,24.76-5.27,37
			c-1.16,6.23-3.6,12.43-6.64,17.99c-1.17,2.15-5.68,3.49-8.55,3.31c-1.75-0.11-4.28-3.63-4.72-5.95
			c-1.47-7.81-2.69-15.75-3.04-23.68c-0.71-16.13-0.08-32.34-1.41-48.41c-0.72-8.73-3.25-17.72-6.86-25.73
			c-8.12-18.01-37.63-17.78-45.56,0.08c-3.44,7.76-6.06,16.35-6.75,24.75c-1.31,16.07-0.69,32.28-1.43,48.41
			c-0.39,8.43-1.45,16.91-3.17,25.17c-1.38,6.62-8.19,7.96-12.79,2.81c-2.04-2.28-3.84-5.26-4.49-8.2
			c-1.91-8.57-3.2-17.28-4.69-25.95c-1.52-8.82-2.28-17.85-4.65-26.44c-2.94-10.7-9.67-15.04-20.75-15.13
			C510.29,525.89,501.63,525.95,492.96,525.95z"/>
		<path class="st1" d="M264.42,536.45c0-24.83-0.12-49.67,0.05-74.5c0.09-13.31,5.73-23.61,18.36-28.87
			c4.18-1.74,9.03-2.4,13.6-2.55c11.16-0.35,22.33-0.26,33.49-0.03c3.62,0.07,5.2-1.28,6.59-4.5
			c28.76-66.88,75.86-116.39,141.41-148.08c29.78-14.4,61.31-22.86,94.33-25.73c74.2-6.45,141.28,12.21,200.56,57.43
			c40.05,30.55,69.82,69.32,89.38,115.78c1.62,3.85,3.59,5.21,7.72,5.11c11.16-0.28,22.33-0.13,33.5-0.09
			c19.51,0.07,32.14,12.75,32.16,32.37c0.03,49,0.03,98,0,147c-0.01,20.3-12.47,32.74-32.75,32.78c-13.67,0.03-27.33,0.04-41,0
			c-19.87-0.07-32.38-12.66-32.4-32.63c-0.02-36-0.59-72.01,0.24-107.99c0.42-18.31-3.17-35.37-10.11-51.92
			c-33.36-79.62-91.9-129.58-176.79-146.32c-106.7-21.04-214.09,35.64-258.45,135.05c-4.39,9.85-7.99,20.1-11.3,30.37
			c-1.6,4.96-2.31,10.42-2.33,15.65c-0.18,41.83-0.06,83.67-0.13,125.5c-0.02,13.47-5.29,24.08-18.15,29.52
			c-4.17,1.77-9.02,2.55-13.58,2.65c-14.16,0.33-28.33,0.18-42.5,0.11c-19.26-0.11-31.87-12.79-31.9-32.11
			C264.38,585.78,264.42,561.12,264.42,536.45z"/>
		<path class="st0" d="M492.96,525.95c8.66,0,17.33-0.06,25.99,0.01c11.08,0.09,17.81,4.44,20.75,15.13
			c2.36,8.59,3.13,17.61,4.65,26.44c1.49,8.66,2.79,17.37,4.69,25.95c0.65,2.94,2.45,5.92,4.49,8.2c4.6,5.16,11.41,3.81,12.79-2.81
			c1.72-8.26,2.78-16.74,3.17-25.17c0.74-16.13,0.12-32.34,1.43-48.41c0.69-8.4,3.31-17,6.75-24.75
			c7.93-17.86,37.44-18.09,45.56-0.08c3.61,8.01,6.13,17,6.86,25.73c1.33,16.06,0.7,32.28,1.41,48.41
			c0.35,7.93,1.57,15.87,3.04,23.68c0.44,2.32,2.97,5.84,4.72,5.95c2.87,0.18,7.38-1.16,8.55-3.31c3.04-5.57,5.48-11.76,6.64-17.99
			c2.28-12.23,3.45-24.67,5.27-37c0.38-2.59,1.35-5.16,2.41-7.59c3.45-7.94,9.53-12.31,18.27-12.36c18.66-0.1,37.33-0.12,55.99,0.01
			c6.71,0.04,11.09,3.24,12.54,8.67c1.27,4.74-0.35,8.82-4.27,11.34c-2.34,1.5-5.56,2.24-8.4,2.27c-16.49,0.21-32.99,0.2-49.49,0.03
			c-3.73-0.04-5.41,1.1-5.86,4.87c-1.39,11.71-2.78,23.43-4.63,35.08c-1.55,9.77-4.64,19.04-10.88,27.03
			c-8.3,10.61-19.7,12.76-31.9,10.85c-10.15-1.58-16.84-8.91-19.15-18.37c-2.85-11.69-4.4-23.82-5.28-35.84
			c-0.91-12.44-0.06-24.99-0.53-37.47c-0.24-6.26-1.32-12.57-2.82-18.66c-0.59-2.41-3.06-5.69-5.17-6.12
			c-4-0.82-4.93,3.39-5.54,6.34c-1.17,5.68-2.3,11.45-2.51,17.22c-0.62,16.97-0.37,33.99-1.29,50.94c-0.43,7.87-2.01,15.88-4.4,23.4
			c-3,9.46-9.11,17.1-19.59,18.62c-12.46,1.8-23.91-0.58-32.1-11.54c-7.14-9.54-9.77-20.65-11.41-32.09
			c-1.42-9.86-2.6-19.77-3.72-29.67c-0.41-3.6-2.21-4.6-5.66-4.57c-16.5,0.14-32.99,0.08-49.49,0.05
			c-7.74-0.01-12.91-4.24-13.13-10.66c-0.23-6.65,4.89-11.54,12.79-11.71c9.49-0.2,18.99-0.05,28.49-0.05
			C492.96,525.96,492.96,525.95,492.96,525.95z"/>
	</g>
</g>
</svg>
