<?xml version="1.0" encoding="utf-8"?>
<!-- Generator: Adobe Illustrator 23.0.5, SVG Export Plug-In . SVG Version: 6.00 Build 0)  -->
<svg version="1.1" id="Layer_1" xmlns="http://www.w3.org/2000/svg" xmlns:xlink="http://www.w3.org/1999/xlink" x="0px" y="0px"
	 viewBox="0 0 5759.88 1478.18" style="enable-background:new 0 0 5759.88 1478.18;" xml:space="preserve">
<g>
	<g>
		<path d="M981.54,1478.18c-22.16,0-44.33,0-66.49,0c-15.19-1.49-30.39-2.85-45.55-4.5c-103.78-11.24-200.22-44.24-289.55-98.12
			c-11.89-7.17-23.44-14.89-35.3-22.46c16.05-6.25,31.71-11.05,46.2-18.21c69.44-34.34,120.59-87.9,157.7-154.98
			c32.58-58.89,47.99-122.92,51.56-189.87c4.03-75.8-0.64-150.77-23.68-223.71c-42.86-135.71-123.49-241.4-248.51-311.58
			c-4.09-2.3-3.83-4.5-2.77-8.25c16.24-57.57,39-112.34,68.72-164.32C645.97,191.04,720,125.66,818.76,88.95
			c101.8-37.84,205.53-39.15,309.47-12.27c151.91,39.29,278.24,120.48,375.37,243.6c141.61,179.49,188.34,383.12,138.24,605.8
			c-43.32,192.59-152.92,340.9-319.88,446.04c-89.91,56.61-188.39,89.87-294.08,101.48
			C1012.45,1475.3,996.99,1476.66,981.54,1478.18z M1444.64,609.79c36.58-6.92,70.83-13.38,105.07-19.91
			c8.51-1.62,14.85-7.53,15.96-14.49c1.39-8.64-3.01-17.92-11.43-21.35c-4.38-1.78-9.85-2.49-14.52-1.73
			c-35.99,5.84-71.83,12.67-107.89,18.07c-14.43,2.16-28.49,14.8-29.02,32.51c-0.52,17.25,0.81,34.6,2.2,51.84
			c1.86,23.06,6.25,46.02,0.81,69.16c-2.26,9.59-7.49,16.63-16.79,20.44c-6.67,2.74-12.91,2.24-16.53-4.37
			c-5.66-10.31-11.99-20.64-15.3-31.77c-6.88-23.15-11.51-46.96-17.92-70.26c-6.68-24.31-12.79-48.96-22.03-72.33
			c-10.45-26.43-29.6-44.17-59.84-47.32c-35.91-3.74-64.73,17.25-71.84,52.49c-4.37,21.66-1.76,43.11,1.33,64.37
			c5.04,34.66,11.93,69.04,17.22,103.67c2.3,15.06,2.82,30.41-1.71,45.43c-2.53,8.38-8.01,12.21-16.56,13.34
			c-15.42,2.05-26.62-4.83-33.59-17.29c-7.91-14.14-14.58-29.11-20.4-44.25c-7.92-20.6-13.35-42.19-21.95-62.47
			c-14.2-33.49-35.94-43.97-71.53-37.01c-7.74,1.51-15.53,2.78-23.32,4.08c-54.76,9.17-109.54,18.26-164.28,27.51
			c-10.2,1.72-18.79,6.81-25.69,14.47c-11.71,12.98-8.47,28.6,7.22,36.28c9.17,4.49,18.78,5.05,28.52,3.2
			c60.21-11.45,120.4-22.98,180.55-34.74c4.27-0.83,6.54-0.09,7.96,3.75c4.81,13.06,9.66,26.11,14.38,39.2
			c7.4,20.51,13.47,41.6,22.29,61.47c21.1,47.53,58.55,66.94,107.85,56.48c27.9-5.92,48.75-21.52,59.83-48.69
			c9.29-22.77,8.72-46.52,5.26-69.97c-4.86-33.01-11.68-65.72-17.35-98.61c-3.31-19.2-6.69-38.49-2.31-58.03
			c1.22-5.43,3.61-10.04,9.6-11.32c6.39-1.37,11.84,0.87,14.84,6.48c5.31,9.93,11.59,19.8,14.46,30.49
			c8.05,29.93,14.47,60.3,21.72,90.45c6.22,25.88,12.56,51.75,27.32,74.5c15.77,24.31,41.16,34.94,67.52,27.1
			c28.28-8.41,47.37-26.7,54.83-55.79c6.22-24.22,4.06-48.66,1.11-73.08C1448.61,644.64,1446.68,627.47,1444.64,609.79z"/>
		<path d="M0,882.92c2.98-25.65,4.79-51.5,9.15-76.91c12.55-73.1,39.17-140.2,89.77-195.79c49.46-54.35,110.96-83.86,185.03-81.29
			c50.95,1.77,97.22,20.23,139.24,49.08c65.8,45.18,111.98,106.52,145.32,178.04c36.34,77.96,54.31,160.4,52.91,246.24
			c-1.27,78.04-18.14,152.82-57.95,221.08c-28.11,48.19-65.07,87.69-115.88,112.32c-65.04,31.53-130.94,30.5-196.82,2.49
			c-52.9-22.48-95.73-58.27-131.81-102.38c-58.85-71.96-93.26-154.98-108.89-246.05c-4.05-23.61-5.73-47.63-8.53-71.45
			c-0.4-3.36-1.01-6.7-1.53-10.05C0,899.81,0,891.37,0,882.92z"/>
		<path d="M1793.68,757.86c-2.11,16.43-3.62,32.97-6.43,49.29c-12.78,74.17-40.74,141.19-95.15,194.92
			c-13.72,13.55-29.72,24.8-44.67,37.11c-0.61-0.62-1.22-1.25-1.83-1.87c5.45-16.37,11.29-32.62,16.29-49.13
			c20-66.03,29.5-133.61,30.59-202.6c1.19-76.08-5.01-151.17-25.47-224.74c-24.66-88.64-64.71-169.61-120.52-242.78
			c-2.37-3.11-4.7-6.26-8.49-11.29c4.91,1.81,7.78,2.74,10.54,3.91c61.5,25.95,109.84,68.19,149.02,121.42
			c50.95,69.22,80.21,147.13,91.6,232.02c1.64,12.23,3.02,24.49,4.51,36.74C1793.68,719.86,1793.68,738.86,1793.68,757.86z"/>
		<path d="M210.93,500.4c10.39-6.11,20.54-12.66,31.25-18.14c5.87-3.01,9.09-6.79,11.11-13.08
			c24.64-76.97,57.74-149.92,104.22-216.36c90.71-129.65,214.29-208.7,369.26-239.1c80.92-15.87,162.37-17.1,244.17-8.16
			c64.63,7.06,128.03,19.94,190.07,39.45c2.47,0.78,4.92,1.62,7.02,3.79c-11.63-2.42-23.23-4.95-34.88-7.23
			c-70.53-13.84-141.55-19.83-213.23-11.68c-137.25,15.6-246.88,79.1-327.89,191.11c-54.59,75.48-88.33,160.18-108.72,250.59
			c-0.05,0.22,0.12,0.5,0.31,1.21c0.54,0.37,1.31,1.09,2.23,1.48c75.71,31.72,134.8,83.76,181.9,150
			c53.93,75.84,85.46,160.52,97.13,252.67c11.26,88.88,2.4,175.34-33.68,257.92c-32.39,74.16-81.96,133-156.22,168.47
			c-13.45,6.42-27.75,11.06-41.66,16.52c-0.37-0.59-0.75-1.18-1.12-1.77c1.18-1.43,2.22-3,3.56-4.26
			c61.48-57.91,94.46-130.72,108.72-212.48c18.53-106.23,10.85-210.87-24.56-312.94c-27.3-78.71-71.66-146.44-132.91-203.24
			c-38.7-35.89-81.41-64.59-132.73-78.72c-45.78-12.6-92.15-13.11-138.74-4.79c-1.26,0.23-2.51,0.49-3.77,0.73
			C211.47,501.72,211.2,501.06,210.93,500.4z"/>
	</g>
</g>
<g>
	<path d="M2433.33,1236.13c-54.78,0-97.9-13.47-129.34-40.4c-31.44-26.94-56.35-63.98-74.76-111.15
		c-18.41-47.15-35.7-100.82-51.87-160.99l-130.67-484.96c-9.88-37.72-7.64-72.97,6.72-105.75c14.36-32.77,42.66-54.54,84.87-65.33
		c39.51-10.77,74.54-8.07,105.08,8.09c30.53,16.16,51.17,44.45,61.96,84.87l121.25,443.19c10.77,38.64,22.22,66.92,34.35,84.89
		c12.12,17.97,31.66,23.8,58.61,17.5c25.15-6.27,38.62-20.19,40.4-41.75c1.79-21.54-2.7-52.08-13.47-91.61l-86.22-327.34
		c-11.68-44.9-10.11-83.74,4.72-116.53c14.82-32.77,44.23-54.11,88.24-64c44.9-10.77,81.04-5.16,108.43,16.84
		c27.39,22.01,46.03,52.78,55.91,92.29l109.13,429.73c11.66,44.03,24.46,73.66,38.38,88.93c13.92,15.27,32.11,19.75,54.56,13.45
		c25.15-7.18,37.27-21.32,36.38-42.43c-0.91-21.1-4.05-51.87-9.44-92.29c-8.09-62.86-15.05-114.48-20.89-154.91
		c-5.83-40.42-10.33-74.1-13.47-101.03c-3.13-26.94-4.7-51.65-4.7-74.1c0-50.3,14.82-93.18,44.45-128.64
		c29.63-35.46,70.04-53.21,121.25-53.21c52.08,0,91.59,15.95,118.53,47.82c26.94,31.89,40.42,75.67,40.42,131.34
		c0,35.94-5.18,73.66-15.49,113.17c-10.33,39.51-20.43,76.78-30.31,111.81l-75.43,259.99c-17.08,59.28-33.92,112.5-50.54,159.64
		c-16.62,47.16-38.84,84.43-66.68,111.82s-67.36,41.08-118.53,41.08c-61.98,0-110.47-19.3-145.5-57.92s-61.98-101.95-80.82-189.97
		h-9.42c-17.97,88.02-41.77,151.35-71.4,189.97C2538.41,1216.83,2493.51,1236.13,2433.33,1236.13z"/>
	<path d="M3260.83,1232.09c-60.18-8.97-99.25-36.59-117.2-82.85c-17.97-46.25-14.38-104.84,10.77-175.81l177.83-505.17
		c16.15-46.69,34.79-86.64,55.89-119.88s47.6-58.83,79.49-76.8c31.87-17.95,71.62-26.94,119.22-26.94
		c71.84,0,125.95,19.77,162.32,59.28c36.38,39.51,66.68,94.29,90.94,164.33l176.46,505.17c25.15,70.96,29.85,129.56,14.14,175.81
		c-15.71,46.25-54.11,73.88-115.18,82.85c-49.41,6.27-92.29,0.44-128.66-17.51c-36.38-17.95-58.14-47.15-65.32-87.57
		c-5.39-26.94-6.09-49.37-2.04-67.34s7.85-32.33,11.46-43.12c2.7-8.97,2.92-17.73,0.67-26.26c-2.26-8.53-9.22-12.81-20.88-12.81
		H3460.2c-11.68,0-18.64,4.28-20.88,12.81c-2.24,8.53-1.57,17.29,2.02,26.26c3.59,10.79,7.18,25.15,10.77,43.12
		c3.59,17.97,3.15,40.4-1.33,67.34c-7.2,40.42-28.3,69.62-63.33,87.57C3352.42,1232.53,3310.22,1238.36,3260.83,1232.09z
		 M3685.18,788.88l-70.05-219.58c-1.8-8.97-4.72-15.93-8.77-20.87c-4.05-4.94-10.55-7.42-19.52-7.42c-9,0-15.51,2.48-19.55,7.42
		c-4.05,4.94-7.4,11.9-10.1,20.87l-68.71,219.58H3685.18z"/>
	<path d="M4402.11,1236.13c-60.18,0-109.78-11.66-148.85-35.03c-39.07-23.35-70.96-57.02-95.66-101.03
		c-24.69-43.99-46.91-97.44-66.66-160.32l-150.88-483.61c-14.38-44.9-13.27-84.2,3.35-117.87s46.47-56.8,89.59-69.38
		c39.51-11.66,75.45-9.2,107.78,7.42c32.33,16.62,54.33,44.69,66.01,84.2l146.83,466.1c15.27,50.3,34.79,83.76,58.59,100.38
		s49.62,20.43,77.47,11.43c28.72-8.07,47.13-24.46,55.22-49.15c8.09-24.69,5.85-62.2-6.72-112.5
		c-20.67-89.81-34.59-160.3-41.77-211.49c-7.18-51.19-10.77-91.61-10.77-121.25c0-50.3,13.69-93.62,41.08-129.99
		c27.39-36.38,69.83-54.56,127.31-54.56c56.57,0,97.66,18.19,123.27,54.56c25.59,36.38,38.4,79.69,38.4,129.99
		c0,29.63-4.05,60.18-12.14,91.61c-8.09,31.44-17.51,63.77-28.28,96.99l-119.9,362.37c-16.17,48.51-33.9,90.94-53.21,127.31
		c-19.32,36.38-44.45,64.44-75.43,84.2C4495.75,1226.26,4454.19,1236.13,4402.11,1236.13z"/>
	<path d="M4902.2,511.38c-26.06-55.67-31.89-105.74-17.53-150.2c14.36-44.45,41.77-75.67,82.19-93.64
		c41.3-17.95,83.28-18.17,125.95-0.66s73.88,54.11,93.64,109.78c9.88,27.85,17.06,59.94,21.54,96.31
		c4.48,36.38,9.66,71.4,15.49,105.08c5.83,33.68,15.73,61.52,29.65,83.52c13.92,22.01,35.7,33,65.33,33
		c29.63,0,51.63-10.99,66.01-33c14.36-22,24.48-49.84,30.31-83.52c5.83-33.68,10.77-68.7,14.82-105.08
		c4.05-36.38,11.01-68.47,20.88-96.31c20.65-55.67,52.08-92.27,94.29-109.78s83.98-17.29,125.29,0.66
		c40.42,17.97,67.81,49.19,82.17,93.64c14.36,44.47,8.53,94.53-17.51,150.2c-13.49,28.74-31.22,55.91-53.21,81.5
		c-22.01,25.6-46.03,51.88-72.08,78.82c-26.04,26.94-52.08,56.8-78.13,89.57c-26.04,32.79-49.84,70.27-71.38,112.48v230.37
		c0,36.81-13.49,67.36-40.42,91.59c-26.95,24.26-60.63,36.38-101.03,36.38c-39.51,0-72.97-12.12-100.36-36.38
		c-27.41-24.24-41.1-54.78-41.1-91.59V873.75c-20.67-42.21-44.01-79.69-70.05-112.48c-26.04-32.77-52.08-62.64-78.13-89.57
		c-26.04-26.94-50.28-53.21-72.73-78.82C4933.63,567.29,4915.66,540.12,4902.2,511.38z"/>
</g>
</svg>
