<?xml version="1.0" encoding="utf-8"?>
<!-- Generator: Adobe Illustrator 23.0.5, SVG Export Plug-In . SVG Version: 6.00 Build 0)  -->
<svg version="1.1" id="Layer_1" xmlns="http://www.w3.org/2000/svg" xmlns:xlink="http://www.w3.org/1999/xlink" x="0px" y="0px"
	 viewBox="0 0 1200 1200" style="enable-background:new 0 0 1200 1200;" xml:space="preserve">
<style type="text/css">
	.st0{fill:#F3F3F3;}
	.st1{fill:#111111;}
</style>
<rect x="92.14" y="99.59" class="st0" width="979.45" height="979.45"/>
<g>
	<g>
		<path class="st1" d="M1,1036c0-290,0-580,0-870c0.38-1.06,0.87-2.08,1.11-3.17C19.97,83.82,67.32,31.65,144.43,6.67
			C151.49,4.39,158.8,2.87,166,1c290,0,580,0,870,0c1.05,0.38,2.08,0.87,3.17,1.12c79.04,17.83,131.15,65.24,156.17,142.31
			c2.29,7.06,3.8,14.38,5.66,21.58c0,290,0,580,0,870c-0.38,1.06-0.87,2.09-1.11,3.17c-18.37,80.63-66.99,133.15-146.14,157.27
			c-5.84,1.78-11.82,3.05-17.74,4.56c-290,0-580,0-870,0c-0.89-0.35-1.75-0.84-2.68-1.04c-76.89-16.93-128.56-62.51-154.87-136.67
			C5.31,1054.43,3.45,1045.11,1,1036z M436.9,814.27c10.15,7.09,20.36,13.68,29.97,21.05c25.9,19.84,51.03,40.71,77.43,59.84
			c26.29,19.04,54.79,33.95,87.92,37.59c17.58,1.93,34.59-0.51,50.75-7.24c17.56-7.31,31.83-19.45,43.35-34.38
			c5.19-6.73,9.4-14.64,12.24-22.66c7.02-19.89,4.93-39.87-1.93-59.5c-6.56-18.76-17.11-35.25-28.93-51.02
			c-20.65-27.56-44.76-52-68.93-76.4c-28.37-28.65-57.69-56.41-82.97-87.97c-10.42-13.01-20.58-26.35-25.05-42.74
			c-1.16-4.26-0.89-9.9,1-13.8c3.51-7.25,10.84-9.79,18.72-6.66c8.89,3.54,17.73,7.64,25.78,12.77
			c23.45,14.94,43.23,34.38,63.15,53.57c30.84,29.71,61.08,60.06,92.38,89.27c20.84,19.45,43.66,36.59,70.26,47.8
			c26.47,11.16,52.93,12.91,79.22-0.79c12.59-6.56,21.74-16.97,30.69-27.48c9.54-11.19,15.66-24.45,18.88-38.64
			c5.16-22.75,2.5-45.13-5.47-67.01c-8.1-22.25-19.83-42.56-33.95-61.36c-18.19-24.23-37.42-47.69-55.91-71.71
			c-7.45-9.68-14.11-19.96-21.15-30.01c22.9-22.86,44.96-44.85,66.99-66.86c22.03-22.01,43.97-44.13,66.11-66.03
			c9.5-9.39,11.96-20.61,8.7-32.95c-7.05-26.69-40.08-33.48-58.46-14.9c-45.59,46.09-91.67,91.7-137.41,137.66
			c-15.97,16.04-18.84,35.56-13.37,56.74c4.4,17.06,13.53,31.84,24.04,45.62c18.09,23.7,37.01,46.76,55.16,70.41
			c14.2,18.49,27.58,37.54,35.17,60c5.89,17.43,2.76,31.48-9.93,43.16c-3.07,2.83-6.4,4.54-10.35,3.39
			c-6.47-1.87-13.16-3.54-19.09-6.58c-21.1-10.82-38.8-26.38-55.75-42.61c-32.99-31.57-65.19-63.96-98.28-95.42
			c-23.32-22.17-47.95-42.89-77.4-56.77c-27.62-13.02-55.59-17.04-84.13-2.22c-29.05,15.09-43.86,39.54-46.16,71.44
			c-1.25,17.32,4.03,33.84,11.45,49.47c11.7,24.63,28.15,46.06,46.54,65.85c23.7,25.51,48.58,49.91,72.46,75.26
			c20.55,21.81,40.73,44,60.42,66.59c9.39,10.78,17.24,22.98,21.03,37.04c1.12,4.18,1.65,9.99-0.39,13.29
			c-8.02,12.96-22.92,18.06-37.85,14.67c-16.86-3.82-31.96-11.65-45.6-21.73c-25.55-18.9-50.41-38.73-75.57-58.16
			c-17.13-13.23-34.33-26.34-54.83-34.18c-22.67-8.67-48.7-5.48-66.51,13.35c-18.78,19.85-38.53,38.77-57.86,58.1
			c-25.81,25.81-51.56,51.68-77.45,77.4c-9.37,9.3-12.38,20.53-9.47,32.91c6.58,28.01,41.1,34.46,58.21,16.07
			c16.33-17.55,33.78-34.05,50.74-51.01C382.3,868.93,409.13,842.07,436.9,814.27z"/>
	</g>
</g>
</svg>
