<?xml version="1.0" encoding="utf-8"?>
<!-- Generator: Adobe Illustrator 23.0.5, SVG Export Plug-In . SVG Version: 6.00 Build 0)  -->
<svg version="1.1" id="Layer_1" xmlns="http://www.w3.org/2000/svg" xmlns:xlink="http://www.w3.org/1999/xlink" x="0px" y="0px"
	 viewBox="0 0 3719.21 2771.86" style="enable-background:new 0 0 3719.21 2771.86;" xml:space="preserve">
<g>
	<g>
		<path d="M1947.42,1532.51c-22.98,0-45.96,0-68.94,0c-15.74-1.55-31.5-2.96-47.23-4.66c-107.6-11.66-207.58-45.86-300.2-101.72
			c-12.32-7.43-24.3-15.44-36.6-23.28c16.64-6.48,32.87-11.45,47.89-18.88c72-35.6,125.03-91.13,163.5-160.67
			c33.78-61.05,49.76-127.44,53.45-196.85c4.18-78.59-0.67-156.31-24.55-231.94c-44.43-140.7-128.03-250.27-257.64-323.04
			c-4.24-2.38-3.97-4.66-2.87-8.55c16.83-59.69,40.44-116.47,71.25-170.36c54.02-94.5,130.78-162.28,233.16-200.34
			c105.54-39.23,213.09-40.59,320.84-12.72c157.49,40.73,288.47,124.91,389.17,252.55c146.81,186.09,195.26,397.2,143.32,628.07
			c-44.92,199.67-158.54,353.43-331.64,462.43c-93.21,58.7-195.32,93.17-304.88,105.21
			C1979.47,1529.52,1963.43,1530.94,1947.42,1532.51z M2427.54,632.2c37.92-7.18,73.43-13.87,108.93-20.64
			c8.82-1.68,15.39-7.8,16.55-15.03c1.44-8.96-3.12-18.58-11.85-22.13c-4.54-1.85-10.22-2.58-15.05-1.79
			c-37.32,6.05-74.47,13.13-111.86,18.73c-14.96,2.24-29.54,15.35-30.09,33.71c-0.53,17.88,0.84,35.87,2.28,53.74
			c1.92,23.91,6.48,47.72,0.83,71.7c-2.34,9.95-7.77,17.24-17.4,21.19c-6.91,2.84-13.38,2.32-17.14-4.53
			c-5.86-10.69-12.43-21.4-15.86-32.94c-7.14-24-11.94-48.69-18.58-72.85c-6.93-25.2-13.26-50.76-22.84-74.99
			c-10.83-27.4-30.68-45.79-62.04-49.06c-37.23-3.87-67.11,17.88-74.48,54.42c-4.53,22.46-1.82,44.69,1.38,66.73
			c5.22,35.93,12.36,71.58,17.85,107.48c2.39,15.61,2.92,31.52-1.78,47.1c-2.62,8.69-8.31,12.65-17.17,13.83
			c-15.99,2.13-27.6-5-34.83-17.93c-8.2-14.66-15.12-30.18-21.15-45.87c-8.21-21.35-13.84-43.74-22.76-64.77
			c-14.72-34.72-37.26-45.58-74.16-38.37c-8.03,1.57-16.11,2.88-24.17,4.23c-56.77,9.5-113.56,18.94-170.32,28.53
			c-10.57,1.79-19.48,7.06-26.64,15c-12.14,13.46-8.78,29.65,7.49,37.62c9.51,4.66,19.47,5.24,29.56,3.32
			c62.42-11.87,124.83-23.83,187.19-36.02c4.43-0.86,6.78-0.09,8.25,3.89c4.99,13.54,10.02,27.06,14.91,40.64
			c7.67,21.26,13.96,43.13,23.11,63.73c21.88,49.28,60.7,69.4,111.81,58.55c28.93-6.14,50.55-22.31,62.03-50.48
			c9.63-23.61,9.04-48.23,5.46-72.55c-5.04-34.22-12.11-68.13-17.98-102.24c-3.43-19.91-6.94-39.9-2.39-60.17
			c1.26-5.63,3.74-10.41,9.95-11.74c6.63-1.42,12.28,0.9,15.38,6.71c5.5,10.3,12.01,20.52,15,31.61c8.34,31.03,15,62.52,22.51,93.78
			c6.45,26.83,13.02,53.65,28.33,77.24c16.35,25.2,42.68,36.23,70,28.1c29.32-8.72,49.11-27.68,56.85-57.84
			c6.44-25.11,4.21-50.45,1.15-75.77C2431.66,668.33,2429.66,650.53,2427.54,632.2z"/>
		<path d="M929.8,915.38c3.09-26.59,4.97-53.39,9.49-79.73c13.01-75.78,40.61-145.35,93.07-202.99
			c51.28-56.34,115.04-86.94,191.83-84.28c52.82,1.83,100.8,20.97,144.35,50.88c68.21,46.84,116.1,110.44,150.67,184.59
			c37.68,80.82,56.3,166.29,54.86,255.29c-1.32,80.91-18.8,158.44-60.08,229.21c-29.14,49.96-67.46,90.91-120.14,116.45
			c-67.43,32.69-135.75,31.62-204.06,2.59c-54.84-23.31-99.25-60.41-136.66-106.15c-61.02-74.61-96.69-160.68-112.89-255.1
			c-4.2-24.48-5.94-49.38-8.85-74.08c-0.41-3.49-1.05-6.95-1.58-10.42C929.8,932.88,929.8,924.13,929.8,915.38z"/>
		<path d="M2789.41,785.71c-2.19,17.04-3.75,34.18-6.66,51.1c-13.25,76.9-42.24,146.38-98.64,202.09
			c-14.23,14.05-30.81,25.72-46.31,38.48c-0.63-0.65-1.26-1.29-1.89-1.94c5.65-16.97,11.71-33.82,16.89-50.94
			c20.74-68.46,30.59-138.52,31.71-210.04c1.24-78.88-5.19-156.72-26.41-233c-25.56-91.9-67.09-175.85-124.95-251.7
			c-2.46-3.23-4.88-6.49-8.8-11.71c5.09,1.88,8.06,2.84,10.93,4.05c63.76,26.9,113.87,70.7,154.5,125.88
			c52.82,71.76,83.16,152.54,94.96,240.55c1.7,12.68,3.13,25.39,4.68,38.09C2789.41,746.32,2789.41,766.02,2789.41,785.71z"/>
		<path d="M1148.49,518.79c10.77-6.33,21.3-13.12,32.4-18.81c6.09-3.12,9.43-7.04,11.52-13.56
			c25.55-79.79,59.86-155.44,108.05-224.32c94.04-134.41,222.16-216.38,382.83-247.88c83.9-16.45,168.34-17.73,253.14-8.46
			c67.01,7.32,132.74,20.68,197.05,40.9c2.56,0.8,5.1,1.68,7.28,3.93c-12.05-2.51-24.08-5.13-36.16-7.5
			c-73.12-14.35-146.75-20.56-221.07-12.11c-142.29,16.17-255.95,82.01-339.94,198.13c-56.59,78.25-91.58,166.07-112.72,259.8
			c-0.05,0.23,0.12,0.52,0.32,1.25c0.56,0.38,1.36,1.13,2.31,1.53c78.5,32.88,139.75,86.83,188.58,155.51
			c55.91,78.63,88.6,166.42,100.7,261.96c11.67,92.15,2.49,181.78-34.92,267.4c-33.59,76.88-84.97,137.89-161.96,174.66
			c-13.94,6.66-28.77,11.46-43.19,17.12c-0.39-0.61-0.78-1.22-1.16-1.84c1.22-1.48,2.3-3.11,3.69-4.42
			c63.74-60.04,97.93-135.52,112.72-220.29c19.21-110.13,11.25-218.62-25.46-324.44c-28.31-81.6-74.29-151.82-137.8-210.71
			c-40.12-37.2-84.4-66.96-137.61-81.61c-47.46-13.06-95.54-13.59-143.84-4.97c-1.31,0.23-2.61,0.5-3.91,0.76
			C1149.05,520.16,1148.77,519.48,1148.49,518.79z"/>
	</g>
</g>
<g>
	<path d="M392.66,2771.86c-54.78,0-97.9-13.47-129.34-40.4s-56.35-63.98-74.76-111.15c-18.41-47.15-35.7-100.82-51.87-160.99
		L6.04,1974.36c-9.88-37.72-7.64-72.97,6.72-105.75c14.36-32.77,42.66-54.54,84.87-65.33c39.51-10.77,74.54-8.07,105.08,8.09
		c30.53,16.16,51.17,44.45,61.96,84.87l121.25,443.19c10.77,38.64,22.22,66.92,34.35,84.89c12.12,17.97,31.66,23.8,58.61,17.5
		c25.15-6.27,38.62-20.19,40.4-41.75c1.79-21.54-2.7-52.08-13.47-91.61L419.6,1981.1c-11.68-44.9-10.11-83.74,4.72-116.53
		c14.82-32.77,44.23-54.11,88.24-64c44.9-10.77,81.04-5.16,108.43,16.84c27.39,22.01,46.03,52.78,55.91,92.29l109.13,429.72
		c11.66,44.03,24.46,73.66,38.38,88.93c13.92,15.27,32.11,19.75,54.56,13.45c25.15-7.18,37.27-21.32,36.38-42.43
		c-0.91-21.1-4.05-51.87-9.44-92.29c-8.09-62.85-15.05-114.48-20.88-154.91s-10.33-74.1-13.47-101.03
		c-3.13-26.94-4.7-51.65-4.7-74.1c0-50.3,14.82-93.18,44.45-128.64c29.63-35.46,70.04-53.21,121.25-53.21
		c52.08,0,91.59,15.95,118.53,47.82c26.94,31.89,40.42,75.67,40.42,131.34c0,35.94-5.18,73.66-15.49,113.17
		c-10.33,39.51-20.43,76.78-30.31,111.8l-75.43,259.99c-17.08,59.28-33.92,112.5-50.54,159.64
		c-16.62,47.16-38.84,84.43-66.68,111.82c-27.85,27.39-67.36,41.08-118.53,41.08c-61.98,0-110.47-19.3-145.5-57.92
		S627.04,2612,608.2,2523.98h-9.42c-17.97,88.02-41.77,151.35-71.4,189.97C497.74,2752.56,452.84,2771.86,392.66,2771.86z"/>
	<path d="M1220.16,2767.82c-60.18-8.97-99.25-36.59-117.2-82.85c-17.97-46.25-14.38-104.84,10.77-175.81l177.83-505.17
		c16.15-46.69,34.79-86.64,55.89-119.88c21.1-33.24,47.6-58.83,79.49-76.8c31.87-17.95,71.62-26.94,119.22-26.94
		c71.84,0,125.95,19.77,162.32,59.28c36.38,39.51,66.68,94.29,90.94,164.33l176.46,505.17c25.15,70.96,29.85,129.56,14.14,175.81
		c-15.71,46.25-54.11,73.88-115.18,82.85c-49.41,6.27-92.29,0.44-128.66-17.51s-58.13-47.15-65.32-87.57
		c-5.39-26.94-6.09-49.37-2.04-67.34s7.85-32.33,11.46-43.12c2.7-8.97,2.92-17.73,0.67-26.26c-2.26-8.53-9.22-12.81-20.88-12.81
		h-250.56c-11.68,0-18.64,4.28-20.88,12.81s-1.57,17.29,2.02,26.26c3.59,10.79,7.18,25.15,10.77,43.12s3.15,40.4-1.33,67.34
		c-7.2,40.42-28.3,69.62-63.33,87.57C1311.75,2768.26,1269.55,2774.09,1220.16,2767.82z M1644.51,2324.61l-70.05-219.58
		c-1.8-8.97-4.72-15.93-8.77-20.87s-10.55-7.42-19.52-7.42c-9,0-15.51,2.48-19.55,7.42s-7.4,11.9-10.1,20.87l-68.7,219.58H1644.51z"
		/>
	<path d="M2361.44,2771.86c-60.18,0-109.78-11.66-148.85-35.03c-39.07-23.34-70.96-57.02-95.66-101.03
		c-24.69-43.99-46.91-97.44-66.66-160.32l-150.88-483.61c-14.38-44.9-13.27-84.2,3.35-117.87c16.62-33.68,46.47-56.8,89.59-69.38
		c39.51-11.66,75.45-9.2,107.78,7.42c32.33,16.62,54.33,44.69,66.01,84.2l146.83,466.1c15.27,50.3,34.79,83.76,58.59,100.38
		c23.8,16.62,49.62,20.43,77.47,11.43c28.72-8.07,47.13-24.46,55.22-49.15c8.09-24.69,5.85-62.2-6.72-112.5
		c-20.67-89.81-34.59-160.3-41.77-211.49c-7.18-51.19-10.77-91.61-10.77-121.25c0-50.3,13.69-93.62,41.08-129.99
		s69.83-54.56,127.31-54.56c56.57,0,97.66,18.19,123.27,54.56c25.59,36.38,38.4,79.69,38.4,129.99c0,29.63-4.05,60.18-12.14,91.61
		c-8.09,31.44-17.51,63.77-28.28,96.99l-119.9,362.37c-16.16,48.51-33.9,90.94-53.21,127.31c-19.32,36.38-44.45,64.44-75.43,84.2
		C2455.08,2761.99,2413.53,2771.86,2361.44,2771.86z"/>
	<path d="M2861.53,2047.11c-26.06-55.67-31.89-105.74-17.53-150.2c14.36-44.45,41.77-75.67,82.19-93.64
		c41.3-17.95,83.28-18.17,125.95-0.66c42.66,17.51,73.88,54.11,93.64,109.78c9.88,27.85,17.06,59.94,21.54,96.31
		s9.66,71.4,15.49,105.08c5.83,33.68,15.73,61.52,29.65,83.52c13.92,22.01,35.7,33,65.33,33c29.63,0,51.63-10.99,66.01-33
		c14.36-22,24.48-49.84,30.31-83.52c5.83-33.68,10.77-68.7,14.82-105.08c4.05-36.38,11.01-68.47,20.89-96.31
		c20.65-55.67,52.08-92.27,94.29-109.78c42.21-17.51,83.98-17.29,125.29,0.66c40.42,17.97,67.81,49.19,82.17,93.64
		c14.36,44.47,8.53,94.53-17.51,150.2c-13.49,28.74-31.22,55.91-53.21,81.5c-22.01,25.6-46.03,51.88-72.08,78.82
		c-26.04,26.94-52.08,56.8-78.13,89.57c-26.04,32.79-49.84,70.27-71.38,112.48v230.37c0,36.81-13.49,67.36-40.42,91.59
		c-26.95,24.26-60.63,36.38-101.03,36.38c-39.51,0-72.97-12.12-100.36-36.38c-27.41-24.24-41.1-54.78-41.1-91.59v-230.37
		c-20.67-42.21-44.01-79.69-70.05-112.48c-26.04-32.77-52.08-62.64-78.13-89.57c-26.04-26.94-50.28-53.21-72.73-78.82
		C2892.96,2103.02,2874.99,2075.85,2861.53,2047.11z"/>
</g>
</svg>
