<?xml version="1.0" encoding="utf-8"?>
<!-- Generator: Adobe Illustrator 23.0.5, SVG Export Plug-In . SVG Version: 6.00 Build 0)  -->
<svg version="1.1" id="Layer_1" xmlns="http://www.w3.org/2000/svg" xmlns:xlink="http://www.w3.org/1999/xlink" x="0px" y="0px"
	 viewBox="0 0 5306.18 847.9" style="enable-background:new 0 0 5306.18 847.9;" xml:space="preserve">
<style type="text/css">
	.st0{fill:#111111;}
</style>
<g>
	<g>
		<path class="st0" d="M5307.86,669.42c-1.54,1.76-3.16,3.45-4.59,5.29c-4.63,5.94-10.04,9.75-18.17,9.71
			c-40.3-0.21-80.61-0.1-120.92-0.09c-12.58,0-20.69,8-20.69,20.42c-0.01,40.53,0,81.06-0.01,121.6c0,11.87-9.89,21.76-21.77,21.76
			c-103.71,0.01-207.41,0.01-311.12,0c-11.91,0-21.84-9.85-21.84-21.69c-0.01-49.36-0.01-98.73,0-148.09
			c0-11.24,10.08-21.23,21.39-21.23c94.88-0.01,189.75,0,284.63-0.01c13.83,0,21.5-7.74,21.5-21.68c0-31.02,0-62.04,0-93.06
			c0-14.3-7.67-21.86-22.18-21.86c-94.2,0-188.39,0-282.59,0c-13.28,0-22.75-9.5-22.75-22.81c0-103.03,0-206.06,0-309.08
			c0-13.23,9.57-22.88,22.68-22.89c39.85,0,79.71-0.43,119.55,0.27c11.4,0.2,22-10.64,21.81-21.51
			c-0.68-40.07-0.28-80.15-0.27-120.23c0-12.3,9.82-22.08,22.16-22.08c102.35-0.01,204.7,0.11,307.05-0.18
			c10.4-0.03,17.75,3.43,23.12,12.01c0.76,1.22,1.99,2.15,3.01,3.21c0,53.45,0,106.89,0,160.34c-0.73,0.76-1.64,1.43-2.18,2.31
			c-5.64,9.21-13.22,13.42-24.6,13.37c-93.53-0.36-187.06-0.21-280.59-0.2c-12.51,0-20.61,8.16-20.62,20.77
			c-0.02,31.48,0.51,62.97-0.28,94.43c-0.28,11.39,10.47,21.73,21.54,21.68c94.66-0.47,189.33-0.22,283.99-0.36
			c8.13-0.01,13.55,3.8,18.18,9.73c1.45,1.86,3.03,3.61,4.56,5.4C5307.86,452.91,5307.86,561.17,5307.86,669.42z"/>
		<path class="st0" d="M1083.34,425.03c0-133.37,0-266.74,0-400.11c0-13.2,9.5-22.77,22.59-22.77c103.25,0,206.51,0,309.76,0
			c12.61,0,22.35,9.73,22.35,22.33c0.01,40.31,0.36,80.62-0.25,120.91c-0.15,10.15,10.65,20.69,20.55,20.55
			c40.3-0.57,80.61-0.24,120.91-0.23c12.61,0,22.7,10.01,22.7,22.53c0.01,212.39,0,424.79,0,637.18c0,12.64-9.96,22.69-22.52,22.69
			c-158.05,0.01-316.1,0.01-474.15,0c-12.24,0-21.95-9.88-21.95-22.29C1083.34,692.22,1083.34,558.62,1083.34,425.03z
			 M1342.24,329.62c16.06,0,32.13,0.01,48.19,0c12.06-0.01,20.37-8.18,20.37-20.08c0.02-32.13-0.4-64.26,0.26-96.38
			c0.2-9.59-10.7-20.57-20.06-20.39c-32.12,0.62-64.25,0.22-96.38,0.24c-11.62,0.01-20.1,8.36-20.12,19.88
			c-0.04,32.35-0.04,64.71,0,97.06c0.01,11.23,8.39,19.62,19.55,19.65C1310.11,329.65,1326.17,329.62,1342.24,329.62z
			 M1342.92,520.48c-16.29,0-32.58-0.04-48.87,0.01c-10.76,0.03-19.51,8.49-19.54,19.09c-0.07,32.81-0.07,65.61,0,98.42
			c0.02,10.63,8.67,19.07,19.43,19.08c32.58,0.04,65.16,0.04,97.74,0c10.52-0.01,19.11-8.68,19.12-19.27
			c0.04-32.58,0.04-65.16,0-97.74c-0.01-11.08-8.55-19.54-19.69-19.57C1375.05,520.45,1358.98,520.48,1342.92,520.48z"/>
		<path class="st0" d="M1.72,425.88c0-133.14,0-266.28,0-399.42c0-13.14,9.55-22.8,22.54-22.87C127.5,3.12,230.75,2.62,333.99,2.15
			c12.67-0.06,22.43,9.67,22.43,22.25c0.01,40.3,0,80.61,0.01,120.91c0,12.17,8.12,20.38,20.21,20.38c40.3,0.02,80.61,0,120.91,0.01
			c12.7,0,22.78,9.92,22.78,22.45c0.01,103.48,0.01,206.96,0,310.43c0,11.7-10.18,21.88-21.91,21.88
			c-40.53,0.02-81.06,0-121.59,0.02c-12.11,0-20.4,8.21-20.4,20.21c-0.02,32.15-0.02,64.31,0,96.46
			c0.01,11.62,8.23,19.93,19.74,19.93c40.76,0.02,81.51,0,122.27,0.01c11.87,0,21.89,9.92,21.89,21.67
			c0.01,49.14,0.01,98.27,0,147.41c0,11.65-10.25,21.93-21.9,21.93c-49.36,0.02-98.72,0.02-148.08,0
			c-11.03-0.01-21.13-10.07-21.14-21.05c-0.03-40.76-0.01-81.51-0.01-122.27c0-12.33-8.19-20.45-20.62-20.45
			c-31.7-0.01-63.4-0.01-95.1,0c-12.53,0-20.59,8.08-20.6,20.64c-0.01,40.3,0,80.61-0.01,120.91c0,12.13-10.12,22.22-22.29,22.23
			c-48.91,0.01-97.82,0.01-146.73,0c-12.34,0-22.12-9.79-22.12-22.12C1.72,692.62,1.72,559.25,1.72,425.88z M192.87,343.31
			c0,43.03-0.01,86.05,0,129.08c0,12.38,8.27,20.78,20.49,20.78c32.38,0.02,64.76,0.02,97.15,0c12.01-0.01,20.15-8.28,20.09-20.42
			c-0.42-86.5-0.86-172.99-1.29-259.49c-0.06-11.97-8.39-20.24-20.47-20.24c-31.02-0.02-62.05-0.01-93.07-0.01
			c-15.47,0-22.89,7.32-22.89,22.59C192.87,258.17,192.87,300.74,192.87,343.31z"/>
		<path class="st0" d="M3464.04,425.28c0,133.16,0,266.31,0,399.47c0,14.04-9.42,23.36-23.61,23.36c-102.81,0-205.62,0-308.43,0
			c-13.46,0-23.11-9.75-23.11-23.35c0-39.86,0-79.71-0.01-119.57c0-12.89-8.09-20.86-21.14-20.86c-40.31-0.01-80.62,0-120.93-0.01
			c-11.81,0-21.83-9.87-21.83-21.53c-0.01-213.1-0.01-426.19,0-639.29c0-11.33,10.01-21.34,21.34-21.35
			c49.37-0.02,98.74-0.02,148.1,0c11.79,0,21.74,9.98,21.74,21.78c0.01,203.58,0.12,407.17-0.27,610.75
			c-0.02,12.49,10.15,23.07,22.53,22.71c31.22-0.91,62.49-0.3,93.74-0.3c12.94,0,20.85-8.02,20.85-21.15
			c0.01-203.36,0-406.72,0-610.07c0-14.52,9.29-23.72,23.93-23.72c48.46,0,96.92-0.01,145.39,0c11.73,0,21.7,9.93,21.7,21.62
			C3464.04,157.61,3464.04,291.44,3464.04,425.28z"/>
		<path class="st0" d="M3497.95,424.99c0-133.36,0-266.72,0-400.09c0-13.19,9.5-22.76,22.61-22.76c103.47,0,206.95,0,310.42,0
			c12.69,0,22.41,9.78,22.41,22.53c0.01,40.08-0.01,80.15,0.01,120.23c0,12.5,8.19,20.78,20.55,20.79
			c40.53,0.02,81.06,0,121.59,0.01c11.39,0,21.48,10.02,21.48,21.36c0.01,158.72,0.01,317.44,0,476.16
			c0,11.22-10.1,21.09-21.51,21.09c-40.53,0.01-81.06,0-121.59,0.01c-12.54,0-20.51,8.06-20.51,20.77
			c-0.01,40.3,0,80.61-0.01,120.91c0,11.73-10.19,22.1-21.76,22.1c-104.15,0.02-208.31,0.02-312.46,0
			c-11.34,0-21.21-10.12-21.21-21.67C3497.95,692.62,3497.95,558.81,3497.95,424.99z M3689.55,424.6
			c0,70.88-0.01,141.77,0.01,212.65c0,11.56,8.31,19.83,19.9,19.84c31.93,0.02,63.87-0.47,95.79,0.27
			c10.75,0.25,21.07-10.69,21.04-20.79c-0.34-141.09-0.22-282.17-0.24-423.26c0-12.15-8.2-20.29-20.36-20.29
			c-31.71-0.02-63.41-0.01-95.12,0c-12.99,0-21.02,8.01-21.02,20.98C3689.55,284.19,3689.55,354.4,3689.55,424.6z"/>
		<path class="st0" d="M4254.46,507.05c0-105.76,0-211.51,0-317.27c0-14.89,9.31-24.08,24.38-24.08c39.4,0,78.81-0.4,118.21,0.26
			c10.67,0.18,21.39-10.62,21.21-21.29c-0.68-40.3-0.28-80.62-0.27-120.93c0-11.74,9.96-21.61,21.82-21.61
			c103.95-0.01,207.89-0.01,311.84,0c11.87,0,21.89,9.9,21.89,21.63c0.01,212.87,0.01,425.75,0,638.62
			c0,12.13-9.97,21.92-22.29,21.92c-40.31,0.01-80.62,0-120.93,0c-13.42,0-21.11,7.8-21.11,21.41c0,40.08,0.01,80.17-0.01,120.25
			c0,12.19-10.01,22.12-22.31,22.12c-103.49,0.01-206.98,0.01-310.48,0c-12.08,0-21.94-10.09-21.94-22.43
			C4254.46,719.47,4254.46,613.26,4254.46,507.05z M4581.94,425.53c0-70.65,0.01-141.3,0-211.96c0-12.6-8.01-20.56-20.68-20.56
			c-31.93-0.01-63.87,0.42-95.78-0.26c-9.78-0.21-20.51,10.59-20.48,20.62c0.36,141.3,0.24,282.61,0.25,423.91
			c0,11.55,8.33,19.8,19.98,19.81c31.93,0.02,63.86,0.01,95.79,0c12.95,0,20.92-7.99,20.93-20.97
			C4581.94,565.93,4581.94,495.73,4581.94,425.53z"/>
		<path class="st0" d="M541.95,424.85c0-78.58,0-157.15,0-235.73c0-13.65,9.64-23.42,23.1-23.42c40.08,0,80.16,0.01,120.24-0.01
			c12.08-0.01,20.28-8.2,20.28-20.27c0.01-40.53,0-81.07,0.01-121.6c0-11.8,9.85-21.68,21.65-21.68
			c103.71-0.01,207.42-0.01,311.13,0c12.09,0,21.92,9.91,21.92,22.08c0.01,48.91,0.01,97.82,0,146.73
			c0,12.29-9.81,22.04-22.18,22.04c-94.65,0.01-189.31,0-283.96,0.01c-13.49,0-21.33,7.84-21.33,21.33c-0.01,31.7-0.01,63.4,0,95.11
			c0.01,11.98,8.2,20.17,20.19,20.17c94.88,0.01,189.76,0,284.64,0.01c13.04,0,22.64,9.64,22.64,22.73c0,157.6,0,315.21,0,472.81
			c0,13.3-9.52,22.95-22.66,22.95c-103.03,0-206.06,0-309.09,0c-13.31,0-22.95-9.52-22.95-22.66c0-40.31,0.01-80.61-0.01-120.92
			c0-11.95-8.25-20.2-20.19-20.21c-40.53-0.01-81.07,0-121.6-0.01c-11.96,0-21.83-9.79-21.83-21.71
			C541.95,583.36,541.96,504.11,541.95,424.85z M800.75,657.09c16.07,0,32.14,0.01,48.21,0c12.14-0.01,20.45-8.18,20.46-20.14
			c0.02-32.14,0.02-64.29,0-96.43c-0.01-11.82-8.09-20.01-19.78-20.02c-32.14-0.03-64.29-0.02-96.43,0
			c-12.1,0.01-20.38,8.21-20.39,20.21c-0.02,32.14-0.02,64.29,0,96.43c0.01,11.62,8.22,19.94,19.71,19.96
			C768.61,657.11,784.68,657.09,800.75,657.09z"/>
		<path class="st0" d="M1861.85,343.22c0-51.63,0-103.25,0-154.88c0-13.07,9.69-22.64,22.93-22.64c40.08,0,80.16,0.01,120.24-0.01
			c12.47-0.01,20.59-8.22,20.6-20.8c0.02-40.31,0-80.61,0.01-120.92c0-11.88,9.9-21.83,21.73-21.83
			c103.71-0.01,207.42-0.01,311.12,0c11.91,0,21.94,9.89,21.95,21.63c0.02,49.14,0.02,98.27,0,147.41
			c0,11.63-10.27,21.81-22.01,21.81c-94.65,0.01-189.3,0.01-283.95,0.01c-13.57,0-21.5,7.83-21.5,21.24
			c-0.01,31.7,0.39,63.41-0.24,95.1c-0.2,9.96,10.45,20.55,20.6,20.51c94.65-0.41,189.3-0.24,283.95-0.24
			c13.64,0,23.16,9.51,23.16,23.15c0,102.8,0,205.6,0,308.41c0,13.64-9.52,23.15-23.16,23.15c-40.08,0-80.16-0.01-120.24,0
			c-12.39,0-20.45,8.15-20.45,20.66c-0.01,40.31,0,80.61-0.01,120.92c0,12.36-9.74,22.2-22.01,22.2
			c-103.48,0.01-206.96,0.01-310.44,0c-12.41,0-22.28-9.71-22.28-21.93c-0.01-49.14-0.01-98.27,0-147.41
			c0-11.76,9.89-21.67,21.63-21.67c94.88-0.01,189.75,0,284.63-0.01c13.38,0,21.25-7.87,21.25-21.25c0-31.7,0.01-63.4,0-95.1
			c-0.01-11.99-8.32-20.25-20.38-20.25c-94.65-0.01-189.3,0-283.95-0.01c-13.76,0-23.18-9.37-23.18-23.05
			C1861.85,446.02,1861.85,394.62,1861.85,343.22z"/>
		<path class="st0" d="M2563,519.95c0-101.91,0-203.82,0-305.73c0-13.43-7.88-21.21-21.47-21.21c-39.86-0.01-79.72,0-119.58-0.01
			c-13.01,0-22.8-9.92-22.8-23.07c0-48.69-0.01-97.38,0-146.07c0-11.8,9.99-21.71,21.87-21.71c158.3-0.01,316.6-0.01,474.9,0
			c11.87,0,21.76,9.78,21.76,21.53c0.01,49.14,0.01,98.29,0,147.43c0,12.28-9.78,21.9-22.27,21.9
			c-40.09,0.01-80.18,0.44-120.25-0.27c-11.28-0.2-21.47,10.54-21.45,21.79c0.34,203.14,0.25,406.28,0.25,609.43
			c0,14.79-9.49,24.17-24.46,24.17c-48.24,0-96.48,0.01-144.71-0.01c-11.89,0-21.79-9.88-21.79-21.74
			C2563,724.23,2563,622.09,2563,519.95z"/>
		<path class="st0" d="M4238.06,425.55c0,132.94,0,265.87,0,398.81c0,14.08-9.57,23.75-23.5,23.75c-48.46,0-96.93,0.01-145.39,0
			c-12.39,0-22.25-9.75-22.25-22c0-266.78,0-533.56,0-800.34c0-12.25,9.76-22.12,21.87-22.13c48.92-0.01,97.83-0.01,146.75,0
			c12.73,0,22.52,9.74,22.52,22.41C4238.07,159.22,4238.06,292.38,4238.06,425.55z"/>
	</g>
</g>
</svg>
